<?xml version="1.0" encoding="UTF-8"?>
<svg version="1.2" baseProfile="tiny" xmlns="http://www.w3.org/2000/svg" viewBox="0 0 512 512" width="512" height="512">
  <title>Download</title>
  <desc>BIMI-compliant vectorized logo for Download</desc>
  <rect width="512" height="512" fill="#FFFFFF"/>
  <path d="M 158 65 C 156.900 66.100, 156 67.455, 156 68.011 C 156 68.567, 155.048 71.154, 153.884 73.761 C 150.967 80.291, 149.616 83.460, 146.532 91 C 145.069 94.575, 143.060 99.300, 142.066 101.500 C 141.072 103.700, 137.898 111.125, 135.012 118 C 132.125 124.875, 128.967 132.300, 127.993 134.500 C 127.019 136.700, 123.672 144.575, 120.556 152 C 117.440 159.425, 113.340 168.970, 111.445 173.211 C 109.550 177.452, 108 181.154, 108 181.436 C 108 181.719, 106.650 184.897, 105 188.500 C 103.350 192.103, 102 195.250, 102 195.495 C 102 195.740, 100.924 198.317, 99.608 201.220 C 98.293 204.124, 94.190 213.700, 90.490 222.500 C 86.791 231.300, 82.940 240.336, 81.934 242.581 C 80.928 244.825, 79.146 249.092, 77.975 252.063 C 76.804 255.034, 74.710 259.948, 73.322 262.983 C 71.933 266.017, 68.540 273.900, 65.781 280.500 C 63.022 287.100, 59.693 294.876, 58.382 297.780 C 57.072 300.683, 56 303.258, 56 303.500 C 56 303.742, 54.932 306.317, 53.627 309.220 C 52.322 312.124, 48.218 321.700, 44.508 330.500 C 40.798 339.300, 36.691 348.876, 35.381 351.780 C 34.071 354.683, 33 357.258, 33 357.500 C 33 357.742, 31.921 360.317, 30.603 363.220 C 27.534 369.978, 19 390.749, 19 391.459 C 19 391.757, 38.961 392, 63.357 392 L 107.714 392 114.983 374.750 C 118.980 365.262, 123.071 355.664, 124.073 353.419 C 125.076 351.175, 126.843 346.936, 128 344 C 129.157 341.064, 130.934 336.825, 131.949 334.581 C 134.759 328.362, 139 318.123, 139 317.556 C 139 317.128, 133.743 310.827, 124.354 300 C 106.904 279.877, 100 271.472, 100 270.353 C 100 269.247, 105.266 269, 128.878 269 C 150.786 269, 157.994 268.698, 158.744 267.750 C 159.288 267.063, 169.059 243.325, 180.458 215 C 191.856 186.675, 201.816 162.193, 202.591 160.596 C 203.366 158.999, 204 157.367, 204 156.968 C 204 156.570, 204.742 154.502, 205.649 152.372 L 207.299 148.500 208.174 151.500 C 208.675 153.218, 208.660 173.516, 208.140 199 C 207.640 223.475, 207.238 245.300, 207.247 247.500 C 207.256 249.700, 206.910 258.137, 206.479 266.250 L 205.694 281 169.406 281 C 149.448 281, 132.896 281.360, 132.624 281.799 C 132.353 282.238, 135.083 285.951, 138.692 290.049 C 152.157 305.339, 159.582 313.466, 162.351 315.947 C 163.919 317.351, 167.487 321.425, 170.280 325 C 183.710 342.189, 194.852 353.551, 195.044 350.250 C 195.087 349.497, 195.858 345.783, 197.896 336.500 C 198.500 333.750, 199.853 327.450, 200.904 322.500 C 201.954 317.550, 203.706 309.450, 204.796 304.500 C 205.887 299.550, 209.090 284.925, 211.913 272 C 214.737 259.075, 217.487 246.588, 218.024 244.250 C 218.561 241.912, 219.450 237.975, 220 235.500 C 220.550 233.025, 221.450 228.975, 222 226.500 C 222.550 224.025, 223.442 220.088, 223.983 217.750 C 224.523 215.412, 225.702 209.900, 226.603 205.500 C 227.504 201.100, 228.593 195.925, 229.024 194 C 229.455 192.075, 230.777 185.550, 231.961 179.500 C 233.144 173.450, 235.255 163.775, 236.652 158 C 239.522 146.129, 240.295 142.805, 242 135 C 242.661 131.975, 243.609 127.700, 244.107 125.500 C 244.605 123.300, 245.395 119.342, 245.864 116.703 L 246.716 111.907 236.260 98.203 C 230.509 90.667, 222.360 79.923, 218.152 74.330 C 213.943 68.736, 209.600 63.905, 208.500 63.594 C 207.400 63.282, 196.037 63.021, 183.250 63.014 C 161.323 63.001, 159.886 63.114, 158 65 M 233.254 71.750 C 236.191 75.463, 239.676 80.075, 240.998 82 C 242.321 83.925, 243.694 85.725, 244.048 86 C 244.403 86.275, 248.604 91.644, 253.384 97.930 C 259.262 105.660, 261.858 109.869, 261.404 110.930 C 261.034 111.794, 260.342 114.412, 259.866 116.750 C 257.406 128.827, 255.668 136.732, 253.437 146 C 251.249 155.089, 250.069 160.801, 249.351 165.773 C 249.012 168.123, 248.344 170.287, 247.867 170.582 C 247.390 170.877, 247 172.801, 247 174.859 C 247 176.917, 246.596 179.027, 246.102 179.550 C 245.609 180.072, 244.957 182.300, 244.653 184.500 C 243.910 189.891, 242.773 195.522, 239 212.500 C 238.450 214.975, 237.579 218.912, 237.065 221.250 C 233.027 239.615, 231.965 244.347, 230.502 250.500 C 228.891 257.271, 228.476 259.182, 226.044 271 C 225.422 274.025, 224.458 278.525, 223.901 281 C 223.344 283.475, 222.661 287.075, 222.382 289 C 222.104 290.925, 221.482 293.400, 221 294.500 C 220.518 295.600, 219.896 298.075, 219.618 300 C 219.339 301.925, 218.636 305.637, 218.056 308.250 C 217.475 310.863, 216.574 314.913, 216.054 317.250 C 215.533 319.587, 214.834 322.850, 214.499 324.500 C 214.165 326.150, 213.434 329.525, 212.876 332 C 211.775 336.875, 211.424 338.468, 207.467 356.500 C 204.801 368.654, 201.319 384.635, 200.442 388.750 L 199.962 391 238.874 391 C 272.938 391, 277.859 390.809, 278.375 389.465 C 279.364 386.887, 284.141 366.931, 285.547 359.500 C 286.276 355.650, 287.613 349.350, 288.518 345.500 C 290.948 335.164, 292.051 329.917, 292.618 326 C 292.896 324.075, 293.518 321.600, 294 320.500 C 294.822 318.624, 295.255 316.327, 296.641 306.500 C 296.951 304.300, 297.609 302.073, 298.102 301.550 C 298.596 301.028, 299 299.484, 299 298.121 C 299 296.758, 299.423 294.260, 299.940 292.571 C 300.457 290.882, 301.390 286.800, 302.014 283.500 C 302.639 280.200, 303.541 275.925, 304.021 274 C 304.500 272.075, 306.071 265.100, 307.511 258.500 C 308.951 251.900, 310.626 244.803, 311.232 242.729 C 312.464 238.513, 313.274 239.757, 300.350 226.031 C 296.967 222.439, 292.748 217.925, 290.975 216 C 289.201 214.075, 283.056 207.478, 277.319 201.340 C 263.820 186.898, 262.003 184.754, 262.001 183.264 C 262 182.316, 269.136 181.967, 292.678 181.764 L 323.357 181.500 324.260 178.500 C 325.729 173.623, 328.040 163.826, 329.922 154.500 C 330.477 151.750, 331.650 146.800, 332.529 143.500 C 334.145 137.432, 335.345 132.198, 337 124 C 337.499 121.525, 338.404 117.250, 339.010 114.500 C 339.615 111.750, 340.339 107.925, 340.618 106 C 340.896 104.075, 341.518 101.600, 342 100.500 C 342.482 99.400, 343.101 96.925, 343.377 95 C 343.846 91.724, 344.829 86.765, 347.143 76 C 347.676 73.525, 348.360 70.037, 348.665 68.250 L 349.219 65 288.567 65 L 227.915 65 233.254 71.750 M 377.710 66.250 C 384.005 74.490, 385.769 76.727, 387.345 78.465 C 388.359 79.584, 390.579 82.525, 392.279 85 C 393.978 87.475, 395.653 89.725, 396.002 90 C 396.351 90.275, 399.001 93.650, 401.891 97.500 C 404.780 101.350, 407.830 105.343, 408.667 106.373 C 409.659 107.592, 409.993 109.336, 409.624 111.373 C 409.313 113.093, 408.792 116.300, 408.467 118.500 C 408.142 120.700, 407.482 123.400, 407 124.500 C 406.518 125.600, 405.896 128.075, 405.618 130 C 404.790 135.721, 400.165 157.032, 396.828 170.500 C 396.283 172.700, 395.601 176.190, 395.313 178.256 C 395.025 180.322, 394.386 182.261, 393.894 182.565 C 393.402 182.869, 393 184.898, 393 187.073 C 393 189.248, 392.583 191.809, 392.073 192.764 C 391.563 193.719, 390.902 195.287, 390.604 196.250 C 390.099 197.882, 387.093 198, 346.031 198 C 317.433 198, 302 198.349, 302 198.997 C 302 199.908, 306.307 204.711, 322.175 221.497 C 325.296 224.799, 328.671 228.451, 329.675 229.613 C 330.679 230.775, 335.386 235.950, 340.134 241.113 C 344.883 246.276, 349.986 251.963, 351.473 253.750 L 354.178 257 364.554 257 C 378.021 257, 377.885 256.779, 374.452 273.038 C 373.042 279.716, 372.026 285.774, 372.194 286.500 C 372.597 288.240, 378.336 285.723, 406.935 271.266 C 419.274 265.028, 430.034 260.054, 430.846 260.212 C 432.024 260.442, 432.280 262.122, 432.109 268.500 C 431.905 276.149, 431.751 276.632, 428.612 279.500 C 423.868 283.835, 417.989 288.352, 414.250 290.534 C 410.914 292.482, 410.036 294.002, 412.250 293.998 C 413.783 293.995, 424.412 288.496, 428.462 285.610 C 432.773 282.539, 438.394 280.025, 439.185 280.816 C 439.562 281.192, 439.979 285.100, 440.111 289.500 C 440.347 297.303, 440.273 297.580, 437.138 300.760 C 433.246 304.707, 421.286 312.722, 411.034 318.255 C 396.806 325.932, 380.005 334, 378.245 334 C 377.276 334, 373.660 332.155, 370.208 329.900 C 365.623 326.904, 363.296 325.960, 361.565 326.394 C 359.702 326.862, 358.522 326.219, 356.032 323.383 C 352.560 319.429, 350.655 315.340, 351.392 313.422 C 351.652 312.743, 351.054 311.454, 350.064 310.558 C 348.373 309.027, 348.162 309.138, 346.631 312.365 C 344.817 316.187, 344.364 328.489, 346 329.500 C 346.550 329.840, 347 330.844, 347 331.731 C 347 332.619, 349.298 335.987, 352.107 339.217 C 357.297 345.183, 359.101 350.725, 356.187 351.748 C 354.795 352.236, 346 343.325, 346 341.425 C 346 339.886, 343.084 334.170, 341.937 333.461 C 341.422 333.142, 341 331.784, 341 330.441 C 341 326.951, 339.330 327.427, 338.162 331.250 C 336.254 337.493, 335.970 341.762, 337.110 347.079 C 338.723 354.599, 341.509 359.674, 347.350 365.731 C 351.872 370.421, 352.369 371.375, 352.157 374.967 C 352.027 377.171, 351.263 380.836, 350.460 383.113 C 347.521 391.444, 346.501 391, 368.590 391 L 388.180 391 387.956 386.750 C 387.449 377.152, 387.905 374, 389.800 374 C 390.790 374, 392.027 374.383, 392.550 374.851 C 393.072 375.319, 396.425 376.849, 400 378.252 C 403.575 379.654, 410.892 382.942, 416.260 385.557 C 425.260 389.943, 428.148 390.667, 426.591 388.148 C 425.915 387.053, 415.734 381.213, 406.500 376.624 C 397.423 372.112, 397 371.369, 397 359.953 L 397 350.213 400.750 351.069 C 404.902 352.017, 419.399 357.741, 427.291 361.548 C 430.087 362.896, 432.443 364, 432.527 364 C 432.786 364, 434.870 356.674, 435.514 353.500 C 435.849 351.850, 436.518 348.475, 437 346 C 438.532 338.137, 439.073 335.587, 439.973 332 C 440.456 330.075, 441.368 325.800, 442 322.500 C 442.632 319.200, 443.535 314.925, 444.006 313 C 444.477 311.075, 445.632 305.900, 446.572 301.500 C 448.693 291.576, 448.698 291.567, 455.363 284.685 C 463.164 276.632, 466.265 269.781, 466.810 259.400 C 467.443 247.342, 466.596 246.236, 462.705 254.040 C 460.756 257.950, 458.762 260.615, 457.621 260.834 C 455.446 261.253, 455.527 260.401, 458.904 247.500 C 460.055 243.100, 461.258 237.025, 461.577 234 C 461.895 230.975, 462.543 227.600, 463.016 226.500 C 463.489 225.400, 464.104 222.925, 464.382 221 C 464.661 219.075, 465.364 215.363, 465.944 212.750 C 466.525 210.137, 467.392 206.088, 467.871 203.750 C 472.623 180.561, 475.032 169.857, 476.030 167.500 C 476.495 166.400, 477.104 163.925, 477.382 162 C 477.661 160.075, 478.385 156.250, 478.990 153.500 C 479.596 150.750, 480.501 146.475, 481 144 C 481.499 141.525, 482.379 137.363, 482.954 134.750 C 483.529 132.137, 484.471 127.862, 485.046 125.250 C 485.621 122.638, 486.501 118.475, 487 116 C 487.862 111.729, 488.724 107.741, 491 97.500 C 491.550 95.025, 492.401 91.088, 492.890 88.750 C 495.198 77.738, 495.999 74.244, 496.962 71.007 C 497.533 69.085, 498 66.948, 498 66.257 C 498 65.262, 485.379 65, 437.378 65 C 389.037 65, 376.949 65.253, 377.710 66.250 M 363 73.059 C 363 73.641, 363.450 73.840, 364 73.500 C 364.550 73.160, 365 72.684, 365 72.441 C 365 72.198, 364.550 72, 364 72 C 363.450 72, 363 72.477, 363 73.059 M 371.441 312.468 C 369.810 313.702, 369.760 313.941, 371.128 313.968 C 372.023 313.986, 373.315 313.325, 374 312.500 C 375.596 310.577, 373.968 310.557, 371.441 312.468 M 366 315 C 366 315.550, 366.423 316, 366.941 316 C 367.459 316, 368.160 315.550, 368.500 315 C 368.840 314.450, 368.416 314, 367.559 314 C 366.702 314, 366 314.450, 366 315" fill="#000000" fill-rule="evenodd"/>
</svg>
